<?xml version="1.0" encoding="utf-8"?>
<svg xmlns="http://www.w3.org/2000/svg" viewBox="0 0 500 500" xmlns:bx="https://boxy-svg.com" width="500px" height="500px"><defs><bx:grid x="5.13" y="6.919" width="499.665" height="496.148"/><bx:export><bx:file format="svg" excluded="true"/><bx:file format="png" path="Untitled 10.png" excluded="true"/><bx:file format="svg" path="Untitled 3.svg" excluded="true"/><bx:file format="svg" path="Untitled 4.svg"/><bx:file format="svg" href="#object-0" path="Untitled 2.svg" excluded="true"/><bx:file format="png" href="#object-0" excluded="true"/><bx:file format="png" href="#object-0" path="Untitled 2.png" excluded="true"/><bx:file format="png" href="#object-1" path="Untitled 3.png"/><bx:file format="png" href="#object-2" path="Untitled 4.png"/><bx:file format="png" href="#object-3" path="Untitled 5.png"/><bx:file format="png" href="#object-4" path="Untitled 6.png"/><bx:file format="png" href="#object-5" path="Untitled 7.png"/><bx:file format="png" href="#object-6" path="Untitled 8.png"/><bx:file format="png" href="#object-7" path="Untitled 9.png"/></bx:export><bx:guide x="199.641" y="30.145" angle="180"/><bx:guide x="298.285" y="21.905" angle="0"/><bx:guide x="49.627" y="322.809" angle="-90"/><bx:guide x="45.025" y="413.921" angle="-90"/><linearGradient gradientUnits="userSpaceOnUse" x1="254.32" y1="4.388" x2="254.32" y2="503.711" id="gradient-0"><stop offset="0" style="stop-color: rgb(20.392% 20.392% 20.392%)"/><stop offset="1" style="stop-color: rgb(13.168% 13.168% 13.168%)"/></linearGradient></defs><rect x="3.51" y="4.388" width="501.62" height="499.323" style="fill: url(&quot;#gradient-0&quot;);" id="object-0"/><path d="M 0 0 L 0 0 L 0 0 L 0 0 L 0 0 L 0 0 L 0 0 L 0 0 Z" bx:shape="star 0 0 0 0 0.3 4 1@aaeb6975" style="fill: rgb(216, 216, 216); stroke: rgb(0, 0, 0);" id="object-1"/><rect x="231.389" y="65.865" width="50" height="78.228" style="fill: rgb(218, 174, 85);" id="object-2"/><path style="fill: rgb(218, 174, 85);" transform="matrix(0.802383, 0, 0, 0.801273, -44.664872, 89.268052)" d="M 265.042662986 297.557337014 A 155.786 155.786 0 1 1 485.357337014 297.557337014 L 443.807035445 256.007035445 A 97.025 97.025 0 1 0 306.592964555 256.007035445 Z" bx:shape="pie 375.2 187.4 97.025 155.786 225 135 1@f2fd81f9" id="object-3"/><ellipse style="fill: rgb(221, 167, 46);" cx="224.06" cy="345.399" rx="17.946" ry="17.705" id="object-4"/><ellipse style="fill: rgb(221, 167, 46);" cx="224.082" cy="399.181" rx="17.946" ry="17.705" id="object-5"/><ellipse style="fill: rgb(221, 167, 46);" cx="286.728" cy="399.748" rx="17.946" ry="17.705" id="object-6"/><ellipse style="fill: rgb(221, 167, 46);" cx="286.728" cy="345.399" rx="17.946" ry="17.705" id="object-7"/></svg>